<?xml version="1.0" encoding="utf-8"?>
<!-- Generator: Adobe Illustrator 15.0.0, SVG Export Plug-In . SVG Version: 6.00 Build 0)  -->
<!DOCTYPE svg PUBLIC "-//W3C//DTD SVG 1.1//EN" "http://www.w3.org/Graphics/SVG/1.1/DTD/svg11.dtd">
<svg version="1.1" xmlns="http://www.w3.org/2000/svg" xmlns:xlink="http://www.w3.org/1999/xlink" x="0px" y="0px"
	 width="595.276px" height="595.275px" viewBox="0 0 595.276 595.275" enable-background="new 0 0 595.276 595.275"
	 xml:space="preserve">
<g id="Layer_1">
	<rect x="-6.826" y="-1.5" width="608.505" height="595.609"/>
</g>
<g id="Layer_2">
	<g>
		<path fill="#E31837" d="M341.406,395.94c-0.141,0.119-0.381,0.24-0.818,0.379C341.389,396.241,341.521,396.106,341.406,395.94z"/>
		<path fill="#E31837" d="M360.219,396.335c-0.148,0.033-0.291,0.076-0.42,0.125C360.1,396.411,360.305,396.356,360.219,396.335z"/>
		<path fill="#E31837" d="M348.936,393.606c-0.023-0.08-0.074-0.145-0.148-0.201C348.715,393.464,348.745,393.53,348.936,393.606z"
			/>
		<path fill="#E31837" d="M429.006,398.722c0.989-0.031,1.486-0.096,1.733-0.18l-1.784,0.162L429.006,398.722z"/>
		<polygon fill="#E31837" points="451.662,395.134 451.574,395.173 451.714,395.151 		"/>
		<path fill="#E31837" d="M427.236,399.114c-0.114,0.061-0.242,0.121-0.309,0.203C427.303,399.302,427.324,399.218,427.236,399.114z
			"/>
		<path fill="#E31837" d="M450.156,394.567l1.506,0.566l0.677-0.299C452.616,394.39,450.883,394.427,450.156,394.567z"/>
		<path fill="#E31837" d="M427.236,399.114c0.395-0.205,0.998-0.328,1.719-0.41l-0.818-0.309
			C426.137,398.429,427.035,398.854,427.236,399.114z"/>
		<path fill="#E31837" d="M412.115,396.358l1.076,0.047c0.118-0.111,0.266-0.223,0.419-0.332
			C412.898,396.114,412.299,396.185,412.115,396.358z"/>
		<path fill="#E31837" d="M413.537,397.856l-0.285-0.107C412.955,397.917,412.838,397.989,413.537,397.856z"/>
		<path fill="#E31837" d="M413.252,397.749c0.199-0.111,0.474-0.268,0.648-0.434l-0.887,0.346L413.252,397.749z"/>
		<path fill="#E31837" d="M478.979,393.409c-0.09,0.014-0.161,0.029-0.191,0.045C478.865,393.437,478.915,393.423,478.979,393.409z"
			/>
		<path fill="#E31837" d="M484.197,370.798c-0.299-1.039-0.457-3.912-0.986-3.605c0.189-1.053,0.169-2.186,0.154-3.287
			c-0.008-0.553-0.014-1.096,0.01-1.619l0.059-0.934c0.029-0.375,0.068-0.74,0.123-1.1c-0.344,1.939-0.559-0.457-0.977,0.16
			l-0.08,1.539l-0.078,1.123l-0.145-1.566l-0.142-2.182c-0.073-1.459-0.081-2.875,0.101-4.127c0.334,0.102,0.445,0.176,0.771-1.256
			c-0.229,1.004-0.38-0.051-0.546-0.779c-0.166-0.746-0.347-1.15-0.637,0.787c0.187,1.158,0.259,2.361,0.206,4.061
			c-0.728,1.283-0.809-1.256-1.219-2.354l-0.428-4.549l-1.549,0.146v-2.141h-0.846v2.205c-1.103-0.189-1.132-0.965-3.758-0.49
			c1.373,0.344,0.453,0.631-0.75,0.924c-1.15,0.273-2.549,0.551-3.002,0.881h-0.757c-0.036-0.002-0.069,0-0.104,0h-3.537
			c1.112-0.174,3.446-0.217,4.189-0.689c0.195-0.512-0.793-1.35,2.961-1.619c-2.184-0.129-2.871-0.02-3.217,0.148
			c-0.363,0.17-0.4,0.395-1.209,0.5l1.283-0.07c-0.634,0.203,0.506,0.594-0.658,0.604c-4.15-0.188-4.88-0.734-7.684-1.377
			c0.625,0.371-0.655,0.717-1.316,0.744c-2.697-0.465,0.035-1.088-1.619-1.852c-0.939,0.475-2.775,0.334-2.154,0.707
			c-1.068,0.01-0.514-0.195-1.277-0.344c-0.689,0.428-1.49,0.678-2.973,0.668c0.134-0.223,0.342-0.557,1.762-0.436
			c-1.592-0.188-2.176-0.959-1.485-1.387l2.593,0.289c1.18-0.521-2.419-0.225-2.319-0.734c1.144-0.121,2.007,0.205,2.735,0.064
			c-0.729-0.549-2.973-0.02-4.289,0.037c-2.078-0.094-1.315-0.633-1.348-0.922c-3.532,0.875,4.08,0.986,0.792,1.814
			c-1.247,0.633-4.396,0.549-6.61,0.678c1.902,0.717-0.211,1.023-2.494,1.266c2.977,0.018,0.76,0.836,4.256,0.363l0.07,0.576
			c-1.49-0.01-3.253-0.26-4.741-0.271c0.31-0.156-0.035-0.285,0.452-0.381l-4.435,0.26l0.452-0.381
			c-2.733-0.064-6.092-0.502-7.721-0.289c1.316-0.055,2.457,0.512,1.076,0.68c-0.799,0.25-2.252,0.529-3.496,0.475
			c-0.658-0.66-5.365-0.643-2.389-1.312c-3.84,0.344-2.422,0.465-6.094,0.873l2.459-0.176c0.249,0.426-1.018,1.08-0.303,1.494
			h-3.969c0.615-0.205,1.561-0.367,1.499-0.471c-1.905-0.029,0.036,0.287-1.762,0.436c-0.077,0.014-0.14,0.021-0.212,0.035h-1.865
			c-0.775-0.244-0.975-0.795-2.943-0.547c0.659-0.027,1.832,0.141,1.041,0.391c-1.406-0.004-2.102,0.061-2.541,0.156h-3.615
			c-0.556-0.535-0.721-0.998-2.631-1.123l1.482,0.01c-1.036-0.391-2.213-0.559-3.287-0.549c-3.634,0.439-6.856,1.092-10.254,1.662
			h-6.236c-0.156-0.195,0.755-0.609,0.571-0.771c-1.421-0.121-0.696,0.428-2.29,0.244c0.037-0.402,3.467-0.766,1.941-1.062
			c-0.173,0.623-1.59,0.502-2.281,0.93c-1.178-0.168,0.03-0.4-0.488-0.596c-0.654,0.027-1.039,0.299-1.625,0.215l0.446-0.383
			c-3.284-0.549-1.001,0.586-4.735,0.42c-0.105,0.51,1.038,0.391,2.594,0.287c0.209,0.299-0.036,0.523-0.495,0.717h-4.571
			c0.621-0.117,1.215-0.242,1.469-0.42l-3.121-0.482c1.043-0.986,2.98-0.67,3.533-1.562c-2.318-0.047-2.041,0.195-4.396,0.549
			c3.808,0.744-1.658,0.613,0.519,1.57c-1.763-0.25-1.209-0.455-3.77-0.455c1.626-0.215,0.065-0.801,2.216-0.818
			c-3.461,0.074-2.525,0.289-5.984,0.361c-0.967,0.625,2.584,0.855,0.348,1.258h-1.631c0.033-0.057,0.189-0.107,0.422-0.107
			c-0.964-0.088-1.233-0.027-1.228,0.107H338.5v37.668h3.242c-2.031,1.611-3.57,3.299-2.869,4.348
			c0.931,0.322-2.311,0.838-0.373,0.971l1.916-0.717c-0.316,0.334,0.771,0.734,0.99,1.035c0.768-0.666-2.459-1.105-0.201-2.018
			c0.463-0.355,1.846-0.338,2.762-0.262c-1.314-0.168,0.449-0.607,1.172-0.834c1.191,0.279,3.096,0.146,3.648,0.578
			c0.182-0.154,1.105-0.242,1.737-0.17l0.06,0.223c1.424-0.197-0.482-0.217-0.117-0.451c1.029-0.076,2.64,0.402,4.318,0.371
			c-1.679,0.031-3.075,0.344-4.275,0.594c3.061,0.393-0.539,1.143-1.223,1.725c2.459-0.273,3.398-0.689,5.409-1.07
			c2.444,0.463-0.19,1.65-0.808,1.719c2.234-0.326,4.574-1.051,5.773-1.303c-1.664,0.881-1.377,1.162-2.875,1.869
			c1.791,0.512,2.155-0.115,3.012-0.451c-0.5,0.082-1.271,0.143-1.453-0.033c2.129,0.074,1.766-1.281,2.875-1.867
			c1.469,0.34,4.175,0.51,4.369,1.18l-0.018-0.697c1.844-0.207,0.959,0.434,1.244,0.713c0.688-0.58-0.17-1.416,2.939-1.645
			c-0.479,1.369,2.771,0.117,2.686,1.365c1.453-0.084,2.113-0.779,3.625-0.637c1.674,0.703-2.289,1.688-3.191,1.48
			c-2.098,0.039,0.277-0.574-0.564-0.559l-2.008,0.379c1.12,0.262,3.314,0.562,3.047,1.133c2.042-0.266-1.645-0.592,0.596-0.918
			l1.35,0.314c2.234-0.326-0.47-0.957,2.445-1.127c-1.949,0.607,3.162-0.002,2.986,0.908c0.117-1.139,5.224-0.16,5.83-1.078
			l-1.544-0.254l0.343,0.504c-1.679,0.033-3.074,0.342-4.811,0.15c1.363-0.422-0.467-0.953,1.119-1.326
			c2.98-0.684,0.795,0.609,1.215,0.6l2.371-0.611l-1.608-0.479c1.847-0.209,4.366-0.256,6.916-0.193
			c3.767,0.664-0.462,0.633,2.236,1.264c1.206-0.25,0.912-0.531,2.622-0.449c-0.922-0.322-1.646,0.146-2.289,0.1
			c-0.828-0.721,3.069-0.342,2.895-1.02c0.703,0.27,0.568,0.557,0.014,0.854c2.883-0.283,5.654-0.168,6.736,0.717l1.243-0.873
			c4.934,0.301-3.372,0.801,0.778,1.348c1.711,0.078,3.396,0.045,4.144-0.311l-1.483-0.027c1.135-0.475,1.049-0.812,2.861-1.131
			c1.289,0.088,0.6,0.668,2.156,0.186c3.139,0.391,2.032,1.012,1.14,1.654c1.305-0.078,2.991-0.061,3.216-0.422
			c0.023,0.205-0.189,0.6-0.929,0.824c-2.654-0.891-1.026,0.914-2.12-0.045l-0.586-0.025c-0.055,0.051-0.104,0.104-0.145,0.154
			c1.141,0.182,1.141,0.482,0.854,0.756l1.062-0.412l0.789,0.82c1.001,0.104,1.662-0.613,2.212-0.129
			c1.492,0.699-2.18,1.107,1.481,1.385c3.919,0.232,3.679-1.094,6.341-0.92c-0.273-0.24-0.936-0.215-1.766-0.25
			c0.867-0.363-0.656-0.66,0.801-0.938c0.827,0.723,3.633,0.678,5.775,0.658c-0.559,0.396,0.816,0.785,0.144,1.012
			c1.087-0.096,2.09-0.217,2.554-0.547c-4.361-0.539,4.223-0.611,0.834-1.338c3.397,0.037,4.052,0.699,6.16,1.08
			c-0.14,0.221-3.912,0.455-0.898,0.764c3.461-0.764-0.62-1.061,2.072-1.975l-2.178-0.268c-0.273-0.932,3.773-0.232,4.332-0.438
			c1.344,0.234-1.872,0.26-0.559,0.891c2.006,0.207,3.016-0.381,4.295-0.035c-1.248,0.631-0.452,0.383-1.873,0.949
			c4.707-0.018-0.24,0.734,3.355,1.125c1.141-0.121,0.415-0.67,2.255-0.529c-1.075-0.68-0.938-0.902-3.913-0.92
			c1.04-0.986,3.913,0.232,5.99-0.363c-1.664-0.076-0.521-0.197-2.322-0.047c-0.244-0.822-0.91-0.949,0.73-1.719
			c-1.933,0.223-2.77,1.107-5.539,0.871c-0.762-0.838,3.395-0.65,3.428-1.738c1.377-0.549,4.729-0.094,6.256,0.307
			c2.686-0.672,5.98-0.693,8.037-1.672c0.971,0.158,2.668,0.004,4.58-0.154l1.511-0.115l1.869-0.086
			c1.24-0.043,2.456-0.049,3.636,0.021c0.889,0.469,5.668,0.328,3.627,0.803c0.559-0.09,2.09-0.17,2.658-0.328
			c-0.081-0.459-0.184-0.701-0.316-0.523c0.025,0.094,0.045,0.18,0.057,0.264c-0.289,0.062-0.793-0.023-1.465,0
			c0.072-0.201,0.131-0.402,0.178-0.604c0.25,0.025,0.493,0.041,0.73,0.047c0.026-0.957-0.106-2.098-0.205-3.15
			c-0.099-1.059-0.162-2.033,0-2.855c0.482-0.469,0.315,4.062,0.883,3.043c-0.451-1.377-0.773-4.053-0.937-6.584l-0.091-1.844
			c-0.021-0.521-0.03-1.027-0.029-1.5c0.004-0.945,0.051-1.756,0.146-2.285c0.121-1.42,0.876-1.588,0.958-2.18l-0.064-2.385
			c0.242-0.279,0.531-0.316,0.838-0.76c0.168-1.176-0.084-1.973-0.223-2.701c0.482-3.113,1.098-1.451,1.6,0.145l-0.252,1.758
			c0.344,1.281,0.203,3.119,0.882,2.041c-0.073-0.891-0.36-0.861-0.519-1.176L484.197,370.798z M357.817,383.13h-10.88v-21.537
			c0-0.59,0.124-1.006,0.372-1.248s0.661-0.363,1.241-0.363h2.988v18.674h6.278V383.13z M365.404,383.13h-4.6v-21.537
			c0-0.59,0.123-1.006,0.371-1.248s0.66-0.363,1.24-0.363h2.988V383.13z M387.81,383.13h-4.46v-13.758l-3.304,10.326h-2.988
			l-3.289-10.326v13.758h-4.475v-21.537c0-0.59,0.122-1.006,0.371-1.248c0.248-0.242,0.661-0.363,1.241-0.363h3.242l4.442,12.301
			l4.364-12.301h3.242c0.59,0,1.006,0.121,1.249,0.363c0.241,0.242,0.363,0.658,0.363,1.248V383.13z M405.139,383.13h-4.602v-7.812
			h-4.27v7.812h-4.602v-17.395c0-0.611,0.1-1.275,0.301-1.992c0.2-0.717,0.582-1.43,1.146-2.143
			c0.563-0.711,1.317-1.246,2.261-1.604c0.943-0.359,1.954-0.539,3.028-0.539c0.959,0,1.792,0.113,2.498,0.34
			c0.706,0.229,1.31,0.525,1.811,0.895s0.906,0.783,1.218,1.24c0.311,0.459,0.556,0.92,0.735,1.385
			c0.179,0.463,0.303,0.908,0.371,1.336c0.068,0.426,0.104,0.787,0.104,1.082V383.13z M422.531,377.358
			c0,0.475-0.074,1.014-0.222,1.621c-0.147,0.605-0.414,1.219-0.799,1.842c-0.385,0.621-0.885,1.16-1.502,1.613
			c-0.616,0.453-1.297,0.768-2.04,0.947s-1.521,0.27-2.332,0.27c-0.98,0-1.832-0.113-2.554-0.34s-1.339-0.525-1.85-0.895
			c-0.513-0.367-0.928-0.781-1.249-1.24c-0.322-0.459-0.575-0.922-0.76-1.393c-0.184-0.469-0.311-0.916-0.379-1.344
			c-0.068-0.426-0.103-0.787-0.103-1.082v-2.199h4.585v1.883c0,0.242,0.025,0.514,0.079,0.814c0.053,0.301,0.163,0.584,0.332,0.854
			s0.403,0.496,0.704,0.68c0.3,0.186,0.698,0.277,1.193,0.277c0.653,0,1.162-0.166,1.526-0.498c0.363-0.332,0.582-0.699,0.655-1.1
			c0.074-0.4,0.111-0.723,0.111-0.965v-0.742c0-0.496-0.098-0.904-0.293-1.227c-0.194-0.32-0.479-0.592-0.854-0.814
			c-0.374-0.221-0.788-0.404-1.241-0.553l-2.467-0.775c-1.022-0.305-1.868-0.732-2.538-1.279c-0.669-0.549-1.136-1.176-1.4-1.883
			c-0.263-0.705-0.394-1.455-0.394-2.244v-1.852c0-0.611,0.103-1.279,0.308-2.008c0.206-0.727,0.594-1.443,1.162-2.15
			c0.569-0.705,1.324-1.236,2.262-1.588c0.938-0.354,1.971-0.531,3.099-0.531c1.413,0,2.591,0.246,3.534,0.736
			s1.668,1.125,2.175,1.904c0.505,0.781,0.819,1.479,0.94,2.096s0.182,1.131,0.182,1.541v2.342h-4.602v-2.01
			c0-0.484-0.07-0.932-0.213-1.344c-0.143-0.41-0.391-0.727-0.743-0.949c-0.354-0.221-0.777-0.332-1.273-0.332
			c-0.495,0-0.891,0.088-1.187,0.262c-0.294,0.174-0.521,0.391-0.679,0.648c-0.159,0.258-0.261,0.537-0.309,0.838
			s-0.071,0.572-0.071,0.814v0.9c0,0.307,0.037,0.584,0.111,0.83c0.073,0.248,0.202,0.48,0.387,0.697
			c0.185,0.215,0.43,0.41,0.735,0.584s0.696,0.336,1.17,0.482l2.467,0.744c0.611,0.189,1.181,0.432,1.708,0.727
			s0.985,0.664,1.376,1.107c0.39,0.441,0.695,0.961,0.917,1.557c0.221,0.596,0.332,1.289,0.332,2.08V377.358z M439.703,377.358
			c0,0.475-0.075,1.014-0.223,1.621c-0.147,0.605-0.414,1.219-0.799,1.842c-0.385,0.621-0.885,1.16-1.502,1.613
			c-0.616,0.453-1.297,0.768-2.04,0.947s-1.521,0.27-2.332,0.27c-0.979,0-1.832-0.113-2.554-0.34s-1.339-0.525-1.85-0.895
			c-0.512-0.367-0.928-0.781-1.25-1.24c-0.321-0.459-0.574-0.922-0.759-1.393c-0.184-0.469-0.312-0.916-0.379-1.344
			c-0.068-0.426-0.103-0.787-0.103-1.082v-2.199h4.585v1.883c0,0.242,0.026,0.514,0.079,0.814s0.163,0.584,0.332,0.854
			s0.403,0.496,0.704,0.68c0.3,0.186,0.698,0.277,1.193,0.277c0.653,0,1.161-0.166,1.526-0.498c0.363-0.332,0.582-0.699,0.656-1.1
			c0.073-0.4,0.11-0.723,0.11-0.965v-0.742c0-0.496-0.098-0.904-0.293-1.227c-0.194-0.32-0.479-0.592-0.854-0.814
			c-0.373-0.221-0.787-0.404-1.24-0.553l-2.467-0.775c-1.022-0.305-1.868-0.732-2.538-1.279c-0.669-0.549-1.136-1.176-1.399-1.883
			c-0.264-0.705-0.395-1.455-0.395-2.244v-1.852c0-0.611,0.103-1.279,0.307-2.008c0.207-0.727,0.595-1.443,1.163-2.15
			c0.569-0.705,1.323-1.236,2.262-1.588c0.938-0.354,1.971-0.531,3.099-0.531c1.413,0,2.591,0.246,3.534,0.736
			c0.942,0.49,1.668,1.125,2.175,1.904c0.506,0.781,0.819,1.479,0.94,2.096s0.182,1.131,0.182,1.541v2.342h-4.602v-2.01
			c0-0.484-0.071-0.932-0.213-1.344c-0.143-0.41-0.39-0.727-0.743-0.949c-0.354-0.221-0.777-0.332-1.273-0.332
			c-0.495,0-0.891,0.088-1.186,0.262s-0.521,0.391-0.68,0.648s-0.261,0.537-0.309,0.838s-0.071,0.572-0.071,0.814v0.9
			c0,0.307,0.038,0.584,0.111,0.83c0.073,0.248,0.202,0.48,0.387,0.697c0.185,0.215,0.43,0.41,0.735,0.584
			c0.305,0.174,0.696,0.336,1.17,0.482l2.467,0.744c0.611,0.189,1.18,0.432,1.709,0.727c0.525,0.295,0.984,0.664,1.375,1.107
			c0.39,0.441,0.695,0.961,0.918,1.557c0.22,0.596,0.332,1.289,0.332,2.08V377.358z M456.934,377.358
			c0,0.475-0.072,1.014-0.22,1.621c-0.147,0.605-0.414,1.219-0.799,1.842c-0.385,0.621-0.886,1.16-1.502,1.613
			c-0.617,0.453-1.297,0.768-2.04,0.947s-1.521,0.27-2.332,0.27c-0.98,0-1.832-0.113-2.555-0.34
			c-0.721-0.227-1.338-0.525-1.85-0.895c-0.511-0.367-0.927-0.781-1.25-1.24c-0.32-0.459-0.573-0.922-0.758-1.393
			c-0.185-0.469-0.311-0.916-0.379-1.344c-0.069-0.426-0.104-0.787-0.104-1.082v-11.623c0-0.631,0.113-1.314,0.34-2.047
			c0.228-0.732,0.625-1.443,1.194-2.135c0.569-0.689,1.323-1.213,2.261-1.564c0.938-0.354,1.972-0.531,3.1-0.531
			c1.401,0,2.582,0.246,3.542,0.736c0.959,0.49,1.689,1.119,2.189,1.889c0.501,0.77,0.82,1.471,0.957,2.104s0.204,1.148,0.204,1.549
			V377.358z M471.514,383.13h-10.879v-21.537c0-0.59,0.123-1.006,0.371-1.248s0.661-0.363,1.241-0.363h2.987v18.674h6.279V383.13z"
			/>
		<path fill="#E31837" d="M451.32,363.981c-0.357-0.232-0.783-0.348-1.279-0.348c-0.675,0-1.194,0.182-1.559,0.545
			c-0.361,0.363-0.58,0.74-0.647,1.131c-0.069,0.391-0.103,0.705-0.103,0.949v10.594c0,0.242,0.026,0.514,0.079,0.814
			c0.053,0.299,0.163,0.584,0.332,0.854c0.168,0.268,0.403,0.496,0.703,0.68c0.301,0.184,0.698,0.277,1.194,0.277
			c0.675,0,1.191-0.18,1.55-0.539c0.358-0.357,0.571-0.734,0.64-1.129c0.069-0.396,0.104-0.715,0.104-0.957v-10.594
			c0-0.508-0.08-0.955-0.237-1.346C451.938,364.524,451.68,364.214,451.32,363.981z"/>
		<path fill="#E31837" d="M399.588,363.989c-0.337-0.238-0.732-0.355-1.186-0.355c-0.633,0-1.112,0.182-1.438,0.545
			c-0.327,0.363-0.526,0.74-0.593,1.131c-0.07,0.391-0.104,0.705-0.104,0.949v4.758h4.27v-4.758c0-0.496-0.074-0.939-0.222-1.33
			C400.168,364.54,399.926,364.226,399.588,363.989z"/>
		<path fill="#E31837" d="M468.807,350.976l-1.003,0.059C468.238,351.03,468.553,351.009,468.807,350.976z"/>
		<path fill="#E31837" d="M453.824,394.845c0.381,0.418-1.596,1.191,0.102,1.555c5.949,0.035,2.531-1.664,8.654-1.561l-3.111-0.484
			c0.167,0.754-2.012,1.172-4.398,1.234l-0.729-0.547c0.408-0.164,0.844-0.295,1.299-0.412
			C454.741,394.565,454.912,395.001,453.824,394.845z"/>
		<path fill="#E31837" d="M455.864,394.651l-0.146-0.039c-0.022,0.01-0.051,0.014-0.078,0.018L455.864,394.651z"/>
		<polygon fill="#E31837" points="56.415,318.823 57.121,319.104 57.684,317.837 56.979,317.556 		"/>
		<rect x="75.155" y="229.353" fill="#E31837" width="14.513" height="104.125"/>
		
			<rect x="60.522" y="352.096" transform="matrix(-0.4472 -0.8944 0.8944 -0.4472 -227.0745 564.7969)" fill="#E31837" width="0.946" height="0.945"/>
		<path fill="#E31837" d="M60.079,317.978c0.423-0.141-0.142-0.281-1.409-0.281c0.423,0.562,0.986,1.127,1.69,1.832
			C60.36,318.542,60.22,318.118,60.079,317.978z"/>
		<rect x="96.431" y="200.608" fill="#E31837" width="0.846" height="3.381"/>
		<rect x="96.431" y="216.671" fill="#E31837" width="0.846" height="3.805"/>
		<rect x="96.431" y="208.075" fill="#E31837" width="0.846" height="1.41"/>
		<rect x="136.869" y="352.64" fill="#E31837" width="0.846" height="1.408"/>
		<path fill="#E31837" d="M131.374,227.802H91.217v104.125c1.832-0.141,3.383,0.141,4.933,0.564v9.299
			c0.141-3.805,0.281-7.045,0.281-9.863h35.366c0.141-5.213,0.141-10.426,0-15.781h-35.93c0-0.281,0.141-1.689,0.282-4.086
			c0.141-1.832,0-3.1-0.142-3.805c0.423-11.693,0.564-19.584,0.564-23.811h32.97v-15.5H96.994v-25.08h35.93
			c-0.281-9.723-0.281-14.654,0.141-15.076C132.078,228.083,131.515,227.802,131.374,227.802z"/>
		<rect x="95.867" y="343.058" fill="#E31837" width="0.846" height="4.932"/>
		<rect x="139.404" y="242.173" fill="#E31837" width="0.847" height="3.383"/>
		<rect x="95.867" y="349.116" fill="#E31837" width="0.846" height="6.34"/>
		<polygon fill="#E31837" points="195.201,354.329 196.048,355.034 196.611,354.612 195.766,353.907 		"/>
		<polygon fill="#E31837" points="187.594,213.147 186.89,213.147 186.185,214.698 186.89,214.979 		"/>
		<polygon fill="#E31837" points="192.525,226.253 191.82,225.97 191.116,227.239 191.962,227.521 		"/>
		<polygon fill="#E31837" points="191.116,355.739 191.962,356.021 192.525,354.753 191.82,354.47 		"/>
		<path fill="#E31837" d="M157.441,279.513l0.281,0.422c0-0.141,0-0.422-0.141-0.562
			C157.582,279.513,157.582,279.513,157.441,279.513z"/>
		<path fill="#E31837" d="M192.102,278.386h0.564l-0.564-6.764h-0.985l0.563,6.48l-10.145-7.467
			c-3.522-2.537-6.341-4.51-8.454-5.637c-2.113-0.986-3.946-2.959-5.495-5.635c-1.549-2.678-2.254-4.791-2.254-6.482
			c0-6.48,3.663-9.723,10.849-9.723c7.468,0,11.272,4.932,11.272,14.654c0,1.691,0,3.1-0.142,4.086h4.368v1.551h0.846v-1.551h13.525
			v-12.117c0-1.551-0.562-3.523-1.832-5.918c-1.549-6.059-5.635-10.566-11.976-13.525v-0.705h-1.69
			c-4.65-1.832-10.145-2.818-16.486-2.818c-4.367,0-8.171,0.564-11.553,1.832v-3.24h-1.127v3.662
			c-2.678,0.986-5.214,2.396-7.327,4.086c-6.06,4.791-9.018,11.695-9.018,20.713c0,5.777,1.269,10.85,3.663,15.076
			c0.423,0.846,2.255,2.818,5.354,6.059c2.113,2.113,3.241,3.664,3.522,4.369h0.703c0.424,0,1.41,0.703,3.102,2.113v8.877h1.127
			v-8.033c2.677,2.115,3.945,3.242,4.086,3.383c11.272,7.467,17.754,12.682,19.444,15.498c1.126,1.832,1.69,4.229,1.69,7.045
			c0,8.314-3.945,12.4-11.835,12.4c-8.031,0-11.977-5.496-11.977-16.627c0-0.705,0-1.832,0.28-3.381c0-1.41,0.143-2.537,0.143-3.24
			h-9.582v-2.678h-1.268v2.678h-9.441v10.004c0,2.957,0.564,6.34,1.691,10.145c0.986,3.803,2.396,6.762,3.945,8.877
			c0.705,0.984,1.973,2.254,3.805,3.521v11.836h1.268v-11.131c1.269,0.846,2.678,1.689,4.228,2.395
			c4.79,2.396,8.595,3.523,11.271,3.523h5.495c21.558,0,32.407-10.287,32.407-30.857c0-6.34-1.409-11.555-4.086-15.781
			C201.824,286.417,197.88,282.472,192.102,278.386z"/>
		<rect x="191.116" y="343.058" fill="#E31837" width="0.985" height="1.268"/>
		<polygon fill="#E31837" points="192.525,207.653 191.68,207.653 191.116,221.884 192.102,221.884 		"/>
		<polygon fill="#E31837" points="192.525,223.151 191.82,222.87 191.116,224.28 191.962,224.562 		"/>
		<rect x="294.959" y="254.149" fill="#E31837" width="0.846" height="2.396"/>
		<rect x="294.959" y="220.476" fill="#E31837" width="0.846" height="2.254"/>
		<rect x="294.959" y="258.235" fill="#E31837" width="0.846" height="5.777"/>
		<polygon fill="#E31837" points="295.805,264.718 295.1,264.718 294.537,267.112 295.241,267.112 		"/>
		<rect x="294.959" y="226.394" fill="#E31837" width="0.846" height="8.031"/>
		<polygon fill="#E31837" points="295.805,241.61 294.959,241.61 294.537,249.923 295.382,249.923 		"/>
		<rect x="294.959" y="223.435" fill="#E31837" width="0.846" height="2.395"/>
		<polygon fill="#E31837" points="295.805,271.903 294.959,271.903 294.537,274.722 295.382,274.722 		"/>
		<rect x="294.959" y="210.331" fill="#E31837" width="0.846" height="5.354"/>
		<rect x="294.537" y="309.665" fill="#E31837" width="0.845" height="1.268"/>
		<rect x="232.963" y="214.839" fill="#E31837" width="0.846" height="2.396"/>
		<polygon fill="#E31837" points="295.805,278.808 294.959,278.808 294.537,283.739 295.382,283.739 		"/>
		<polygon fill="#E31837" points="233.809,229.493 232.963,229.493 232.541,232.874 233.245,232.874 		"/>
		<polygon fill="#E31837" points="295.805,301.634 294.959,301.634 294.537,306.425 295.382,306.425 		"/>
		<rect x="294.959" y="284.444" fill="#E31837" width="0.846" height="2.395"/>
		<polygon fill="#E31837" points="295.805,298.251 295.1,297.97 294.537,299.237 295.241,299.521 		"/>
		<polygon fill="#E31837" points="295.805,295.575 295.1,294.87 294.537,295.292 295.241,295.997 		"/>
		<path fill="#E31837" d="M266.356,297.829c0,7.186-0.423,12.117-1.268,14.795c-1.691,5.354-5.214,8.031-10.568,8.031
			c-6.802,0-10.865-5.859-12.118-17.559c0-6.59,0-14.402,0-23.443c0-9.686,0-16.588-0.031-20.715
			c1.229-11.604,5.318-17.469,12.291-17.469c7.468,0,11.271,5.635,11.271,17.049v2.535l-0.281,1.41
			c0.563,0.141,1.409,0.281,2.395,0.281c0.141,0,0.705,0,1.551-0.141h13.807v-9.863c0-1.268-0.562-3.805-1.831-7.609
			c-0.987-3.24-1.69-5.072-2.113-5.775c-4.649-8.314-12.681-12.4-23.953-12.4c-2.255,0-5.917,0.564-10.849,1.41
			c-1.691,0.281-5.637,2.254-11.836,5.775v95.391c6.199,4.789,13.809,7.186,22.685,7.186c10.004,0,17.19-3.664,21.979-10.99
			c3.946-6.199,6.06-14.373,6.06-24.939c0-0.141,0.142-1.551,0.282-4.367h-17.472V297.829z"/>
		<rect x="294.537" y="339.817" fill="#E31837" width="0.845" height="1.408"/>
		<polygon fill="#E31837" points="294.537,345.735 295.382,345.735 295.805,342.353 294.959,342.353 		"/>
		<rect x="294.537" y="357.571" fill="#E31837" width="0.845" height="6.762"/>
		<rect x="294.537" y="346.862" fill="#E31837" width="0.845" height="4.932"/>
		<path fill="#E31837" d="M223.945,247.81c-1.408,7.186-2.113,14.09-2.113,20.713v27.615c0,1.127,0.282,3.664,0.846,7.609
			c0.704,4.932,1.408,8.736,2.113,11.131c1.269,4.367,3.382,7.75,6.341,10.285v-93.275c-3.241,4.369-5.072,7.186-5.354,8.312
			C225.073,242.456,224.51,244.991,223.945,247.81z"/>
		<rect x="294.537" y="335.308" fill="#E31837" width="0.845" height="1.832"/>
		<path fill="#E31837" d="M283.828,296.421h0.141c0.282,0,0.282-0.143,0-0.564C283.828,295.997,283.828,296.138,283.828,296.421z"/>
		<polygon fill="#E31837" points="232.541,337.985 233.104,338.267 233.809,336.999 233.104,336.718 		"/>
		<polygon fill="#E31837" points="232.541,345.312 233.245,345.312 233.809,340.38 232.963,340.38 		"/>
		<rect x="232.541" y="356.442" fill="#E31837" width="0.704" height="1.41"/>
		<path fill="#E31837" d="M244.939,342.495c0.423,0.422,0.986,0.703,1.832,0.703c0,0-0.141-0.422-0.563-1.408
			C246.066,341.79,245.645,342.071,244.939,342.495z"/>
		<rect x="518.992" y="352.64" fill="#E31837" width="0.846" height="1.408"/>
		<path fill="#E31837" d="M513.497,227.802h-40.156v104.125c1.831-0.141,3.382,0.141,4.931,0.564v9.299
			c0.142-3.805,0.281-7.045,0.281-9.863h35.367c0.141-5.213,0.141-10.426,0-15.781h-35.93c0-0.281,0.141-1.689,0.281-4.086
			c0.142-1.832,0-3.1-0.141-3.805c0.422-11.693,0.564-19.584,0.564-23.811h32.97v-15.5h-32.548v-25.08h35.93
			c-0.281-9.723-0.281-14.654,0.141-15.076C514.201,228.083,513.637,227.802,513.497,227.802z"/>
		<rect x="521.528" y="242.173" fill="#E31837" width="0.846" height="3.383"/>
		<rect x="457.278" y="229.353" fill="#E31837" width="14.513" height="104.125"/>
		<rect x="477.99" y="343.058" fill="#E31837" width="0.846" height="4.932"/>
		<rect x="478.553" y="208.075" fill="#E31837" width="0.847" height="1.41"/>
		<rect x="478.553" y="216.671" fill="#E31837" width="0.847" height="3.805"/>
		<rect x="478.553" y="200.608" fill="#E31837" width="0.847" height="3.381"/>
		<rect x="309.201" y="230.056" fill="#E31837" width="0.846" height="5.215"/>
		<rect x="309.201" y="237.524" fill="#E31837" width="0.846" height="8.312"/>
		<rect x="309.201" y="215.544" fill="#E31837" width="0.846" height="8.312"/>
		<polygon fill="#E31837" points="309.201,363.771 310.047,363.771 310.611,356.021 309.766,356.021 		"/>
		<path fill="#E31837" d="M346.963,334.464h21.416L344.85,231.606h-26.771l-7.467,29.871c-0.564-2.256-0.846-4.086-0.846-5.637
			c0,8.312-0.283,15.076-0.705,20.289l-0.422,0.424c-0.705-0.705-1.129-3.805-0.986-9.582l-12.628,50.725h-0.487v1.408h0.137
			l-3.508,14.09l17.049,0.283v-56.502c0.424,0.424,0.846,0.986,1.268,1.41v56.078c0.705-0.283,1.691-0.424,2.818-0.283
			c2.537-9.299,4.369-15.781,5.355-19.443c0.986-3.664,1.689-5.777,2.113-6.199h21.838
			C343.158,315.159,344.99,323.896,346.963,334.464z M319.062,294.187l8.504-25.162c-2.047-1.041-3.451-3.164-3.451-5.621
			c0-3.48,2.82-6.303,6.303-6.303c3.48,0,6.305,2.822,6.305,6.303c0,2.842-1.881,5.244-4.465,6.029v0.781l8.508,23.973H319.062z"/>
		<polygon fill="#E31837" points="309.201,354.329 310.047,354.329 310.611,351.513 309.766,351.513 		"/>
		<rect x="413.458" y="209.907" fill="#E31837" width="0.845" height="7.328"/>
		<path fill="#E31837" d="M392.604,287.677h-4.869l-0.049-2.904l-1.293,0.059l0.012,2.846h-2.63v-19.479h-2.321v-5.266h11.15
			v-33.018c-1.832,0.141-3.803,0.281-6.199,0.281c-2.395,0-5.071-0.141-8.03-0.281v103.844h14.229V287.677z"/>
		<polygon fill="#E31837" points="395.281,221.884 394.437,221.884 393.873,225.688 394.717,225.688 		"/>
		<rect x="413.458" y="199.903" fill="#E31837" width="0.845" height="2.254"/>
		<rect x="413.458" y="195.958" fill="#E31837" width="0.845" height="1.27"/>
		<polygon fill="#E31837" points="395.281,211.317 394.437,211.317 393.873,218.784 394.717,218.784 		"/>
		<circle fill="#E31837" cx="434.35" cy="265.563" r="7.02"/>
		<path fill="#E31837" d="M434.352,253.72c5.096,0,9.428,3.225,11.1,7.738c0.078-0.834,0.132-1.637,0.132-2.377
			c0-3.24-0.563-7.045-1.691-11.131c-3.381-12.539-13.385-18.316-29.87-17.611c0-1.129,0-2.115-0.141-3.1v-3.242
			c0,0.283-0.143,1.551-0.282,3.664c-0.141,1.549-0.141,2.535,0,3.24c-12.399,0-18.739-0.141-19.021-0.422
			c0.139-0.705,0.281-1.27,0.281-1.832c0-0.846-0.281-1.691-0.705-2.395v36.68h28.654C424.01,257.661,428.715,253.72,434.352,253.72
			z"/>
		<path fill="#E31837" d="M393.027,330.095c0.704,1.973,1.127,3.383,1.127,4.086h4.932v-27.193c0-9.439,0.423-14.654,1.409-15.641
			h12.257c0.424,0.283,0.706,0.705,0.706,1.27c0-0.424,0.28-0.705,0.986-1.127c5.072,0,10.145-1.127,15.218-3.242
			c6.057-2.535,9.722-5.635,11.271-9.721c0.564-1.514,1.059-2.945,1.52-4.336c-2.119,1.992-4.964,3.221-8.102,3.221
			c-5.637,0-10.342-3.943-11.543-9.213h-28.654v27.799L393.027,330.095z"/>
		<polygon fill="#E31837" points="393.764,287.677 393.764,268.198 394.154,268.198 394.154,262.933 392.604,262.933 
			392.604,287.677 		"/>
	</g>
</g>
</svg>
